<?xml version="1.0" encoding="utf-8"?>
<svg viewBox="0 0 395.52 128.5990647353267" xmlns="http://www.w3.org/2000/svg">
  <g id="textblocktransform">
    <svg viewBox="0 0 395.52 128.5990647353267" height="128.5990647353267" width="395.52" id="textblock">
      <g>
        <svg viewBox="0 0 395.52 128.5990647353267" height="128.5990647353267" width="395.52">
          <path d="M394.594 27.582C392.735 14.234 387.435 10.523 387.435 10.523 371.165-3.226 350.86-0.263 332.619 1.713 300.414 1.793 268.339 4.729 236.208 6.304 168.767 6.545 100.749 2.594 33.643 12.338 27.339 15.328-6.54 12.925 1.121 29.291 3.129 36.098 10.456 43.654 10.232 49.901 11.236 50.995 12.631 48.486 13.226 50.061 15.309 54.306 18.711 52.304 21.501 54.813 17.614 61.514 20.403 67.094 23.062 72.94 18.377 74.462 12.371 73.741 9.675 78.787 9.396 82.445 7.89 81.75 6.235 81.59 5.026 81.483 2.59 81.884 2.999 83.032 4.394 86.956-1.594 89.226 2.162 93.07-0.422 97.235 3.948 100.839 3.353 105.351 3.278 106.258 3.687 107.033 4.338 107.246 7.22 108.394 3.018 110.637 3.464 113.066 33.029 129.672 65.104 118.192 95.394 125.827 103.259 120.488 97.346 127.723 100.489 126.601 102.943 125.293 104.728 130.713 107.499 127.643 107.927 126.762 107.276 124.679 108.8 125.08 109.6 125.293 110.307 125.24 110.418 124.012 110.586 122.17 109.117 123.318 108.726 122.357 112.947 117.498 111.906 129.058 115.866 128.577 115.68 127.162 114.528 125.133 116.889 125.4 119.232 123.371 119.306 121.689 121.389 126.254 121.463 127.242 121.835 127.936 122.43 128.417 128.938 123.451 135.409 130.179 142.233 127.936 146.417 125.48 150.433 129.271 154.672 128.337 156.16 127.589 157.666 126.254 159.098 128.497 176.632 128.978 195.319 126.975 211.943 128.577 256.364 125.587 303.835 129.805 350.674 125.854 361.719 124.332 373.192 122.17 383.958 120.434 383.958 120.434 392.679 115.682 392.679 94.325S394.538 75.637 394.817 58.631C395.096 41.625 396.398 40.931 394.538 27.582Z" opacity="1" fill="#e65728" data-fill-palette-color="tertiary"/>
          <g transform="matrix(1,0,0,1,55.76832,26.230666666666668)">
            <svg width="283.98335999999995" viewBox="-0.8500000238418579 -36 150.48001098632812 40.349998474121094" height="76.13773140199335" data-palette-color="#ffffff">
              <path d="M0.85 4.35L0.85 4.35Q-0.25 3.7-0.55 2.98-0.85 2.25-0.85 1.75L-0.85 1.75Q-0.85 0.35 0.18-2.05 1.2-4.45 2.93-7.53 4.65-10.6 6.75-13.9L6.75-13.9Q4.9-14.05 3.6-14.1 2.3-14.15 1.35-14.15L1.35-14.15-0.4-14.15Q0.15-15.6 1.53-16.18 2.9-16.75 4.8-16.75L4.8-16.75Q5.65-16.75 6.55-16.65 7.45-16.55 8.4-16.4L8.4-16.4Q10.95-20.25 13.63-23.88 16.3-27.5 18.63-30.33 20.95-33.15 22.5-34.6L22.5-34.6Q23.95-36 24.9-36L24.9-36Q25.45-36 26.13-35.58 26.8-35.15 27.55-34.4L27.55-34.4Q27.05-34 26.28-32.27 25.5-30.55 24.63-27.95 23.75-25.35 22.9-22.25 22.05-19.15 21.33-15.93 20.6-12.7 20.18-9.8 19.75-6.9 19.75-4.7L19.75-4.7Q19.75-2.8 20.18-1.75 20.6-0.7 21.6-0.7L21.6-0.7Q22.9-0.7 24.55-2.5 26.2-4.3 28.15-8.1L28.15-8.1 28.65-7.6Q27.15-3.6 24.83-1.05 22.5 1.5 20 1.5L20 1.5Q17.95 1.5 17.03-0.33 16.1-2.15 16.1-5.2L16.1-5.2Q16.1-6.8 16.32-8.7 16.55-10.6 16.95-12.65L16.95-12.65Q14.75-13 12.93-13.23 11.1-13.45 9.55-13.65L9.55-13.65Q7.2-9.3 4.98-4.7 2.75-0.1 0.85 4.35ZM17.3-14.4L17.3-14.4Q18.05-17.7 19.05-21.08 20.05-24.45 21.18-27.5 22.3-30.55 23.3-32.85L23.3-32.85Q21.75-31.9 19.73-29.48 17.7-27.05 15.45-23.58 13.2-20.1 10.85-15.95L10.85-15.95Q12.55-15.6 14.23-15.18 15.9-14.75 17.3-14.4ZM31.8 3.65L31.8 3.65Q29.2 3.65 27.92 1.95 26.65 0.25 26.65-2.65L26.65-2.65Q26.65-5.15 27.5-8.55 28.35-11.95 29.75-15.68 31.15-19.4 32.87-22.95 34.6-26.5 36.35-29.38 38.1-32.25 39.65-33.98 41.2-35.7 42.2-35.7L42.2-35.7Q43.05-35.7 43.42-34.65 43.8-33.6 43.8-32.55L43.8-32.55Q43.8-31.15 43.2-29.15 42.6-27.15 41.5-24.88 40.4-22.6 38.95-20.4 37.5-18.2 35.82-16.38 34.15-14.55 32.4-13.5L32.4-13.5Q32.1-12.95 31.52-11.23 30.95-9.5 30.47-7.28 30-5.05 30-2.95L30-2.95Q30-0.9 30.62 0.43 31.25 1.75 32.75 1.75L32.75 1.75Q34.2 1.75 35.75 0.58 37.3-0.6 38.25-2.45L38.25-2.45Q36.4-3.4 35.5-5.23 34.6-7.05 34.6-8.9L34.6-8.9Q34.6-11.3 35.85-12.75 37.1-14.2 38.8-14.2L38.8-14.2Q40.25-14.2 41.1-13.03 41.95-11.85 41.95-9.6L41.95-9.6Q41.95-7.95 41.5-6.2 41.05-4.45 40.2-2.8L40.2-2.8Q40.5-2.75 40.82-2.7 41.15-2.65 41.5-2.65L41.5-2.65Q43.3-2.65 44.5-3.53 45.7-4.4 46.52-5.68 47.35-6.95 47.9-8.1L47.9-8.1 48.5-7.45Q47.1-4 45.17-2.88 43.25-1.75 41.35-1.75L41.35-1.75Q40.95-1.75 40.55-1.8 40.15-1.85 39.75-1.9L39.75-1.9Q38.4 0.4 36.42 2.02 34.45 3.65 31.8 3.65ZM38.75-3.45L38.75-3.45Q39.3-4.6 39.6-5.88 39.9-7.15 39.9-8.5L39.9-8.5Q39.9-10.25 39.42-11.25 38.95-12.25 38.25-12.25L38.25-12.25Q37.5-12.25 36.92-11.23 36.35-10.2 36.35-8.65L36.35-8.65Q36.35-7.3 36.9-5.8 37.45-4.3 38.75-3.45ZM32.95-15.45L32.95-15.45Q34.35-16.55 35.67-18.25 37-19.95 38.15-21.88 39.3-23.8 40.2-25.65 41.1-27.5 41.6-29 42.1-30.5 42.1-31.25L42.1-31.25Q42.1-31.5 42.05-31.58 42-31.65 41.9-31.65L41.9-31.65Q41.5-31.65 40.37-30.23 39.25-28.8 37.87-26.43 36.5-24.05 35.15-21.18 33.8-18.3 32.95-15.45ZM52.1 2.55L52.1 2.55Q49.75 2.55 48.37 1.53 47 0.5 46.42-1 45.85-2.5 45.85-4L45.85-4Q45.85-5.5 46.25-6.3 46.65-7.1 47.22-7.5 47.8-7.9 48.32-8.1 48.85-8.3 49.05-8.5L49.05-8.5Q50.55-10.15 51.8-11.95 53.05-13.75 54-15.75L54-15.75 54-16.35Q54-18.2 54.62-18.98 55.25-19.75 55.95-19.75L55.95-19.75Q56.35-19.75 56.55-19.55 56.75-19.35 56.75-19.1L56.75-19.1Q56.75-18.85 56.6-18.3 56.45-17.75 56.45-16.9L56.45-16.9Q56.45-15.25 57.1-13.33 57.75-11.4 58.4-9.28 59.05-7.15 59.05-4.85L59.05-4.85Q59.05-4.2 58.97-3.58 58.9-2.95 58.75-2.4L58.75-2.4Q60.5-2.7 62.05-3.98 63.6-5.25 65.05-8.05L65.05-8.05 65.5-7.55Q64.55-4.8 62.65-3.38 60.75-1.95 58.5-1.6L58.5-1.6Q57.7 0.55 55.97 1.55 54.25 2.55 52.1 2.55ZM52.2 0.8L52.2 0.8Q52.8 0.8 53.8 0.4 54.8 0 55.35-1.65L55.35-1.65Q53.25-2.05 51.62-3.3 50-4.55 49.2-5.8L49.2-5.8Q48.1-5.75 48.1-4.05L48.1-4.05Q48.1-2.25 49.17-0.73 50.25 0.8 52.2 0.8ZM55.6-2.45L55.6-2.45Q55.7-2.95 55.75-3.5 55.8-4.05 55.8-4.8L55.8-4.8Q55.8-7.15 55.22-9.47 54.65-11.8 54.25-13.85L54.25-13.85Q53.1-11.95 51.82-10.23 50.55-8.5 49.4-7.35L49.4-7.35Q50.15-5.75 51.72-4.35 53.3-2.95 55.6-2.45ZM68.34 2.3L68.34 2.3Q66.19 2.3 65.04 1.05 63.89-0.2 63.89-2.65L63.89-2.65Q63.89-4.85 64.72-8.08 65.54-11.3 66.79-14.7L66.79-14.7Q66.29-14.8 65.84-14.88 65.39-14.95 64.99-15.1L64.99-15.1 64.99-16Q65.39-15.95 65.94-15.9 66.49-15.85 67.19-15.8L67.19-15.8Q68.24-18.5 69.44-21.03 70.64-23.55 71.82-25.53 72.99-27.5 74.07-28.68 75.14-29.85 75.89-29.85L75.89-29.85Q76.29-29.85 76.62-29.58 76.94-29.3 76.94-28.75L76.94-28.75Q76.94-27.9 75.89-25.98 74.84-24.05 73.29-21.4 71.74-18.75 70.29-15.65L70.29-15.65Q70.74-15.65 71.22-15.65 71.69-15.65 72.14-15.65L72.14-15.65Q73.79-15.65 75.62-15.7 77.44-15.75 79.29-15.95L79.29-15.95 79.29-15.05Q76.54-14.75 74.37-14.6 72.19-14.45 70.49-14.45L70.49-14.45Q70.29-14.45 70.12-14.45 69.94-14.45 69.74-14.45L69.74-14.45Q68.59-11.8 67.79-9 66.99-6.2 66.99-3.55L66.99-3.55Q66.99-1.4 67.64-0.48 68.29 0.45 69.79 0.45L69.79 0.45Q72.39 0.45 74.89-1.85 77.39-4.15 79.29-8.1L79.29-8.1 79.94-7.6Q78.74-4.8 76.92-2.55 75.09-0.3 72.89 1 70.69 2.3 68.34 2.3ZM86.99 1.3L86.99 1.3Q85.29 1.3 84.31 0.4 83.34-0.5 83.34-1.95L83.34-1.95Q83.34-3.45 84.04-5.1 84.74-6.75 85.42-8.38 86.09-10 86.09-11.3L86.09-11.3Q86.09-12.9 85.17-13.68 84.24-14.45 83.29-15.1L83.29-15.1Q82.14-12.15 80.89-9.5 79.64-6.85 78.84-5.5L78.84-5.5 78.39-6.35Q79.09-7.65 80.22-10.15 81.34-12.65 82.44-15.85L82.44-15.85Q81.94-16.35 81.94-17.05L81.94-17.05Q81.94-18.55 82.79-19.5 83.64-20.45 84.04-20.45L84.04-20.45Q84.59-20.45 84.67-19.98 84.74-19.5 84.74-19.25L84.74-19.25Q84.74-19 84.47-18.28 84.19-17.55 84.19-17.4L84.19-17.4Q84.19-16.7 84.97-16.13 85.74-15.55 86.74-14.83 87.74-14.1 88.52-13.08 89.29-12.05 89.29-10.45L89.29-10.45Q89.29-8.95 88.67-7.4 88.04-5.85 87.42-4.45 86.79-3.05 86.79-2L86.79-2Q86.79-1.1 87.24-0.8 87.69-0.5 88.29-0.5L88.29-0.5Q89.49-0.5 90.77-1.25 92.04-2 93.24-3.15 94.44-4.3 95.39-5.58 96.34-6.85 96.79-7.95L96.79-7.95 97.44-7.45Q96.49-5.35 94.84-3.33 93.19-1.3 91.17 0 89.14 1.3 86.99 1.3ZM99.49 1.5L99.49 1.5Q97.79 1.5 96.76-0.03 95.74-1.55 95.74-3.55L95.74-3.55Q95.74-5 96.21-6.9 96.69-8.8 97.39-10.65 98.09-12.5 98.84-13.7 99.59-14.9 100.14-14.9L100.14-14.9Q100.39-14.9 100.99-14.63 101.59-14.35 101.99-13.9L101.99-13.9Q101.44-13.05 100.64-11.3 99.84-9.55 99.24-7.55 98.64-5.55 98.64-3.85L98.64-3.85Q98.64-3.45 98.74-2.63 98.84-1.8 99.24-1.15 99.64-0.5 100.44-0.5L100.44-0.5Q101.39-0.5 102.39-1.48 103.39-2.45 104.41-4 105.44-5.55 106.39-7.35 107.34-9.15 108.16-10.8 108.99-12.45 109.54-13.55L109.54-13.55Q109.84-13.5 110.41-13.35 110.99-13.2 111.46-12.95 111.94-12.7 111.94-12.25L111.94-12.25Q111.94-12.05 111.44-10.93 110.94-9.8 110.26-8.18 109.59-6.55 109.09-4.9 108.59-3.25 108.59-2L108.59-2Q108.59-1.1 108.96-0.55 109.34 0 110.24 0L110.24 0Q111.29 0 112.79-0.95 114.29-1.9 115.84-3.73 117.39-5.55 118.59-8.1L118.59-8.1 119.24-7.65Q118.19-4.95 116.49-2.88 114.79-0.8 112.89 0.35 110.99 1.5 109.19 1.5L109.19 1.5Q107.89 1.5 107.11 1 106.34 0.5 106.01-0.35 105.69-1.2 105.69-2.2L105.69-2.2Q105.69-2.8 105.79-3.43 105.89-4.05 106.04-4.7L106.04-4.7Q105.14-3.05 104.09-1.63 103.04-0.2 101.89 0.65 100.74 1.5 99.49 1.5ZM122.99 2.8L122.99 2.8Q120.59 2.8 118.99 1.2 117.39-0.4 117.39-3.6L117.39-3.6Q117.39-6.1 118.36-8.47 119.34-10.85 120.94-12.75 122.54-14.65 124.49-15.78 126.44-16.9 128.34-16.9L128.34-16.9Q130.39-16.9 131.14-15.7 131.89-14.5 131.89-13.2L131.89-13.2Q131.89-11.75 131.21-10.65 130.54-9.55 129.39-9.55L129.39-9.55Q128.54-9.55 127.94-10.3L127.94-10.3Q128.69-10.7 129.24-11.93 129.79-13.15 129.79-14.25L129.79-14.25Q129.79-14.85 129.56-15.18 129.34-15.5 128.69-15.5L128.69-15.5Q127.34-15.5 125.91-14.3 124.49-13.1 123.26-11.2 122.04-9.3 121.26-7.2 120.49-5.1 120.49-3.25L120.49-3.25Q120.49-1.7 121.24-0.4 121.99 0.9 124.14 0.9L124.14 0.9Q126.14 0.9 128.16-0.2 130.19-1.3 131.94-3.35 133.69-5.4 134.74-8.15L134.74-8.15 135.39-7.65Q134.24-4.65 132.24-2.27 130.24 0.1 127.84 1.45 125.44 2.8 122.99 2.8ZM138.03 2.3L138.03 2.3Q135.88 2.3 134.73 1.05 133.58-0.2 133.58-2.65L133.58-2.65Q133.58-4.85 134.41-8.08 135.23-11.3 136.48-14.7L136.48-14.7Q135.98-14.8 135.53-14.88 135.08-14.95 134.68-15.1L134.68-15.1 134.68-16Q135.08-15.95 135.63-15.9 136.18-15.85 136.88-15.8L136.88-15.8Q137.93-18.5 139.13-21.03 140.33-23.55 141.51-25.53 142.68-27.5 143.76-28.68 144.83-29.85 145.58-29.85L145.58-29.85Q145.98-29.85 146.31-29.58 146.63-29.3 146.63-28.75L146.63-28.75Q146.63-27.9 145.58-25.98 144.53-24.05 142.98-21.4 141.43-18.75 139.98-15.65L139.98-15.65Q140.43-15.65 140.91-15.65 141.38-15.65 141.83-15.65L141.83-15.65Q143.48-15.65 145.31-15.7 147.13-15.75 148.98-15.95L148.98-15.95 148.98-15.05Q146.23-14.75 144.06-14.6 141.88-14.45 140.18-14.45L140.18-14.45Q139.98-14.45 139.81-14.45 139.63-14.45 139.43-14.45L139.43-14.45Q138.28-11.8 137.48-9 136.68-6.2 136.68-3.55L136.68-3.55Q136.68-1.4 137.33-0.48 137.98 0.45 139.48 0.45L139.48 0.45Q142.08 0.45 144.58-1.85 147.08-4.15 148.98-8.1L148.98-8.1 149.63-7.6Q148.43-4.8 146.61-2.55 144.78-0.3 142.58 1 140.38 2.3 138.03 2.3Z" opacity="1" transform="matrix(1,0,0,1,0,0)" fill="#ffffff" class="undefined-text-0" data-fill-palette-color="quaternary" id="text-0"/>
            </svg>
          </g>
        </svg>
      </g>
    </svg>
  </g>
</svg>